<svg xmlns="http://www.w3.org/2000/svg" width="24" height="24" viewBox="0 0 24 24" fill="none" stroke="currentColor" stroke-width="1.4" stroke-linecap="round" stroke-linejoin="round">
  <path d="M4 7.5 C9 11 15 11 20 7.5 M4 7.5 L4 5.5 M20 7.5 L20 5.5"></path>
  <path d="M8.4 9.9 C8.8 12.8 9.4 14.6 10.2 16.2 C10.5 14 10.5 11.8 10.1 10.2 Z M11.5 10.5 C11.9 13.8 12.6 15.8 13.5 17.6 C13.8 15 13.8 12.4 13.3 10.6 Z M14.7 10.2 C15.1 12.6 15.6 14.1 16.4 15.5 C16.6 13.5 16.6 11.7 16.2 10.3 Z" fill="currentColor" stroke="none"></path>
</svg>