<svg xmlns="http://www.w3.org/2000/svg" width="24" height="24" viewBox="0 0 24 24" fill="none" stroke="currentColor" stroke-width="1.4" stroke-linecap="round" stroke-linejoin="round">
  <path d="M12 4.5 C8.5 4.5 6 7 6 10.5 C6 12.8 7.3 14.6 9.2 15.6 L9.2 18.5 L14.8 18.5 L14.8 15.6 C16.7 14.6 18 12.8 18 10.5 C18 7 15.5 4.5 12 4.5 Z M10.6 18.5 L10.6 16.8 M13.4 18.5 L13.4 16.8"></path>
  <path d="M9.7 11.8 a1.2 1.2 0 1 0 0.001 0 M14.3 11.8 a1.2 1.2 0 1 0 0.001 0" fill="currentColor" stroke="none"></path>
</svg>