<svg xmlns="http://www.w3.org/2000/svg" width="24" height="24" viewBox="0 0 24 24" fill="none" stroke="currentColor" stroke-width="1.4" stroke-linecap="round" stroke-linejoin="round">
  <path d="M12 7 C10.2 5.6 7.2 5.4 5 6.4 L5 17.4 C7.2 16.4 10.2 16.6 12 18 C13.8 16.6 16.8 16.4 19 17.4 L19 6.4 C16.8 5.4 13.8 5.6 12 7 Z M12 7 L12 18"></path>
  <path d="M7.3 9.5 L8.7 9.5 L8.7 11 L10.2 11 L10.2 12.4 L8.7 12.4 L8.7 13.9 L7.3 13.9 L7.3 12.4 L5.8 12.4 L5.8 11 L7.3 11 Z" fill="currentColor" stroke="none"></path>
</svg>