<svg xmlns="http://www.w3.org/2000/svg" width="24" height="24" viewBox="0 0 24 24" fill="none" stroke="currentColor" stroke-width="1.4" stroke-linecap="round" stroke-linejoin="round">
  <path d="M3 13 C5 10 7.5 8.6 10.5 8.1 L9.8 10 C12 8.9 14.3 8.3 16.3 8.2 L15.2 9.9 C17.4 8.9 19.5 8.4 21.5 8 M3 13 C5 15.6 8 16.7 11.5 16.4 L10.6 14.7 C13.2 15.3 15.6 14.8 17.5 13.5 L16.2 12.6 C18.4 12 20.2 10.5 21.5 8 M5.8 12.6 C7.2 10.7 10 10.7 11.4 12.6 C10 14.5 7.2 14.5 5.8 12.6 Z"></path>
  <path d="M8.6 10.7 C9.5 12 9.5 13.3 8.6 14.6 C7.7 13.3 7.7 12 8.6 10.7 Z" fill="currentColor" stroke="none"></path>
</svg>