<svg xmlns="http://www.w3.org/2000/svg" width="24" height="24" viewBox="0 0 24 24" fill="none" stroke="currentColor" stroke-width="1.4" stroke-linecap="round" stroke-linejoin="round">
  <path d="M10.5 9 C9 4.5 6 2.8 2.5 3.5 C4 4.8 4.7 6.3 4.7 8 C6 7.4 7.2 7.6 8.2 8.6 C9 8.2 9.8 8.4 10.5 9 M13.5 9 C15 4.5 18 2.8 21.5 3.5 C20 4.8 19.3 6.3 19.3 8 C18 7.4 16.8 7.6 15.8 8.6 C15 8.2 14.2 8.4 13.5 9 M12 5.5 L12 17.5 M10.4 9.8 L13.6 9.8"></path>
  <path d="M12 21 L10.8 17.3 L13.2 17.3 Z" fill="currentColor" stroke="none"></path>
</svg>