<svg xmlns="http://www.w3.org/2000/svg" width="24" height="24" viewBox="0 0 24 24" fill="none" stroke="currentColor" stroke-width="1.4" stroke-linecap="round" stroke-linejoin="round">
  <path d="M10.2 13.5 a1.1 1.1 0 1 0 2.2 0 a1.1 1.1 0 1 0 -2.2 0 M13.6 13.5 a1.1 1.1 0 1 0 2.2 0 a1.1 1.1 0 1 0 -2.2 0"></path>
  <path d="M12.8 3 C16.5 5.5 18 9.5 17.8 14 C17.6 17.5 15.5 20 12.5 20 C9.5 20 7.2 17.8 7.2 14.5 C7.2 12.8 7.8 11.2 9 9.8 C9.3 11.5 10.4 12.3 11.6 12 C10 9 10.4 5.5 12.8 3 Z" fill="currentColor" stroke="none"></path>
</svg>