<svg xmlns="http://www.w3.org/2000/svg" width="24" height="24" viewBox="0 0 24 24" fill="none" stroke="currentColor" stroke-width="1.4" stroke-linecap="round" stroke-linejoin="round">
  <path d="M12 6 C8.5 6 6 8.7 6 11.9 C6 14.2 7.3 16 9.2 17 L9.2 19.6 L14.8 19.6 L14.8 17 C16.7 16 18 14.2 18 11.9 C18 8.7 15.5 6 12 6 Z"></path>
  <path d="M10.6 19.6 L10.6 17.8 M13.4 19.6 L13.4 17.8"></path>
  <path d="M8.2 10.8 L11.2 12.3 L8.8 14 Z M15.8 10.8 L12.8 12.3 L15.2 14 Z M7.5 4.2 L7.5 1.4 L9.8 3 L12 1 L14.2 3 L16.5 1.4 L16.5 4.2 Z" fill="currentColor" stroke="none"></path>
</svg>