<svg xmlns="http://www.w3.org/2000/svg" width="24" height="24" viewBox="0 0 24 24" fill="none" stroke="currentColor" stroke-width="1.4" stroke-linecap="round" stroke-linejoin="round">
  <path d="M12 7 C8.5 7 6.5 9.5 6.5 12.5 C6.5 15.5 9 17.5 12 17.5 C15 17.5 17.5 15.5 17.5 12.5 C17.5 9.5 15.5 7 12 7 Z M6.5 4.5 C6.5 6.2 7.1 7.4 8.2 8.2 M17.5 4.5 C17.5 6.2 16.9 7.4 15.8 8.2 M6.5 4.5 L9.8 7 M17.5 4.5 L14.2 7"></path>
  <path d="M9.8 11.8 a1 1 0 1 0 0.001 0 M14.2 11.8 a1 1 0 1 0 0.001 0 M12 13.8 L13 14.8 L12 15.8 L11 14.8 Z" fill="currentColor" stroke="none"></path>
</svg>