<svg xmlns="http://www.w3.org/2000/svg" width="24" height="24" viewBox="0 0 24 24" fill="none" stroke="currentColor" stroke-width="1.4" stroke-linecap="round" stroke-linejoin="round">
  <path d="M11 6 C8 6 6 8 6 10.8 C6 12.6 7 14 8.5 14.8 L8.5 17 L13.5 17 L13.5 14.8 C15 14 16 12.6 16 10.8 C16 8 14 6 11 6 Z M9.4 17 L9.4 15.4 M12.6 17 L12.6 15.4 M18 9 C19.5 10 19.5 12 18 13 M20 7 C22.2 9 22.2 13 20 15"></path>
  <path d="M8.9 10.8 a1.1 1.1 0 1 0 0.001 0 M13.1 10.8 a1.1 1.1 0 1 0 0.001 0" fill="currentColor" stroke="none"></path>
</svg>