<svg xmlns="http://www.w3.org/2000/svg" width="24" height="24" viewBox="0 0 24 24" fill="none" stroke="currentColor" stroke-width="1.4" stroke-linecap="round" stroke-linejoin="round">
  <path d="M12 12 m-4.2 0 a4.2 4.2 0 1 0 8.4 0 a4.2 4.2 0 1 0 -8.4 0"></path>
  <path d="M12 4.5 L12 7 M12 17 L12 19.5 M4.5 12 L7 12 M17 12 L19.5 12 M6.7 6.7 L8.5 8.5 M15.5 15.5 L17.3 17.3 M17.3 6.7 L15.5 8.5 M8.5 15.5 L6.7 17.3"></path>
  <path d="M12.8 9.5 L10.6 12.4 L12 12.4 L11.2 14.5 L13.4 11.6 L12 11.6 Z" fill="currentColor" stroke="none"></path>
</svg>