<svg xmlns="http://www.w3.org/2000/svg" width="24" height="24" viewBox="0 0 24 24" fill="none" stroke="currentColor" stroke-width="1.4" stroke-linecap="round" stroke-linejoin="round">
  <path d="M12 12 m-8.5 0 a8.5 8.5 0 1 0 17 0 a8.5 8.5 0 1 0 -17 0"></path>
  <path d="M12 12 m-6 0 a6 6 0 1 0 12 0 a6 6 0 1 0 -12 0"></path>
  <path d="M12 12 m-2 0 a2 2 0 1 0 4 0 a2 2 0 1 0 -4 0"></path>
  <path d="M12 6 L12 10 M12 14 L12 18 M6 12 L10 12 M14 12 L18 12"></path>
  <path d="M7.75 7.75 L9.9 9.9 M14.1 14.1 L16.25 16.25 M16.25 7.75 L14.1 9.9 M9.9 14.1 L7.75 16.25"></path>
</svg>